<?xml version="1.0" encoding="UTF-8"?>
<svg xmlns="http://www.w3.org/2000/svg" viewBox="0 0 135.72 135.72">
  <defs>
    <style>
      .cls-1 {
        fill: #ae99dc;
        opacity: .7;
      }

      .cls-1, .cls-2 {
        mix-blend-mode: multiply;
      }

      .cls-3 {
        fill: none;
        opacity: .8;
      }

      .cls-4 {
        isolation: isolate;
      }

      .cls-5 {
        fill: #ff9b2e;
      }

      .cls-6, .cls-2 {
        fill: #006ca8;
      }

      .cls-2 {
        opacity: .5;
      }
    </style>
  </defs>
  <g class="cls-4">
    <g id="Layer_2" data-name="Layer 2">
      <g id="Objects">
        <g>
          <rect class="cls-3" width="135.72" height="135.72"/>
          <g>
            <path class="cls-6" d="m89.88,45.45c0,.93-.06,1.82-.14,2.69-.4,4.34-1.78,7.96-4.18,10.84-2.88,3.46-6.27,5.19-10.18,5.19H25.49v20.6h35.95c13.83,0,28.44-7.63,28.44-39.32Z"/>
            <path class="cls-1" d="m89.88,45.45c0,.93-.06,1.82-.14,2.69-.4,4.34-1.78,7.96-4.18,10.84-.57.69-1.18,1.3-1.79,1.85-.02,7.5-3.75,21.07-18.33,23.71,12.5-1.47,24.44-10.45,24.44-39.09Z"/>
            <path class="cls-5" d="m102.08,19.58c-5.67-5.5-13.1-8.62-22.29-9.36-1.43-.11-2.9-.18-4.41-.18h-36.33v20.43h22.39l13.95-.17c4.52,0,8.07,1.42,10.64,4.26,2.57,2.84,3.85,6.47,3.85,10.89,0,31.7-14.62,39.32-28.44,39.32h13.95c6.48,0,12.48-1.59,17.98-4.77,5.5-3.18,9.97-7.72,13.4-13.62,3.42-5.9,5.14-12.88,5.14-20.94,0-10.89-3.27-19.52-9.82-25.87Z"/>
            <path class="cls-2" d="m37.82,84.78v-16.72s.01-2.96.69-3.88h1.77v20.6h-2.46Z"/>
            <path class="cls-6" d="m39.05,45.69v-7.18c12.36,0,22.39,10.02,22.39,22.39v66.97h0c-12.36,0-22.39-10.02-22.39-22.39v-5.74s0-28.17,0-28.17h0v-25.88h0Z"/>
          </g>
        </g>
      </g>
    </g>
  </g>
</svg>